<?xml version="1.0" standalone="no"?>
<!DOCTYPE svg PUBLIC "-//W3C//DTD SVG 20010904//EN"
 "http://www.w3.org/TR/2001/REC-SVG-20010904/DTD/svg10.dtd">
<svg version="1.0" xmlns="http://www.w3.org/2000/svg"
 width="680.000000pt" height="340.000000pt" viewBox="0 0 680.000000 340.000000"
 preserveAspectRatio="xMidYMid meet">
<metadata>
Created by potrace 1.16, written by Peter Selinger 2001-2019
</metadata>
<g transform="translate(0.000000,340.000000) scale(0.100000,-0.100000)"
fill="#000000" stroke="none">
<path d="M5334 2143 c3 -7 0 -12 -7 -10 -9 1 -12 -80 -12 -353 l0 -355 27 -58
c15 -32 32 -56 37 -53 5 4 13 1 17 -5 4 -8 3 -9 -4 -5 -23 14 -12 -10 16 -36
47 -43 85 -65 141 -82 69 -20 201 -21 268 -1 54 16 117 54 115 70 0 6 9 21 21
35 19 22 19 23 2 8 -53 -44 -116 -62 -225 -62 -138 -1 -196 18 -265 88 -87 88
-89 98 -93 493 -3 332 -4 342 -23 340 -11 -1 -17 -7 -15 -14z"/>
<path d="M5914 2144 c3 -8 1 -14 -4 -14 -5 0 -10 -144 -12 -345 -2 -256 -6
-347 -15 -356 -10 -10 -11 -6 -3 22 6 20 9 169 8 359 l-2 325 -7 -345 c-4
-190 -8 -356 -10 -369 -6 -36 18 -37 40 0 34 55 42 147 39 448 -3 266 -4 284
-21 287 -13 2 -17 -2 -13 -12z"/>
<path d="M393 2066 c-56 -14 -119 -51 -128 -76 -5 -12 -4 -13 6 -2 15 14 33
16 24 2 -4 -6 6 -5 22 2 15 6 73 15 128 19 l100 7 -100 -3 c-55 -1 -111 -5
-125 -9 -14 -3 -7 1 15 9 90 35 269 12 337 -45 14 -12 1 -8 -36 11 -32 16 -66
29 -75 29 -9 0 10 -11 41 -24 31 -13 76 -38 99 -57 24 -19 40 -29 36 -23 -3 6
4 16 19 22 21 10 23 15 14 32 -45 84 -244 140 -377 106z"/>
<path d="M83 2006 c-73 -84 -81 -117 -81 -336 0 -185 1 -198 24 -248 13 -30
28 -51 33 -48 5 4 13 1 17 -5 4 -8 3 -9 -4 -5 -7 4 -12 3 -12 -2 0 -13 100
-109 138 -132 51 -31 52 -23 2 9 -25 16 -63 48 -85 72 l-40 44 50 -47 c89 -84
181 -117 320 -118 96 0 180 20 255 61 30 16 46 23 35 14 -92 -75 -286 -107
-425 -71 -63 16 -77 14 -28 -4 48 -18 214 -24 278 -11 68 14 144 49 188 86 46
38 27 52 -29 21 -88 -50 -216 -67 -335 -45 -228 42 -354 225 -341 499 5 117
22 178 72 256 41 63 20 70 -32 10z"/>
<path d="M4361 1924 c-15 -19 -21 -40 -19 -73 l1 -46 7 45 7 45 1 -47 2 -48
43 -2 42 -1 -45 -7 c-37 -6 -40 -7 -13 -8 l31 -2 4 -222 c3 -205 5 -226 25
-263 11 -22 29 -48 40 -57 31 -28 89 -48 135 -47 42 2 41 2 -12 9 -30 4 -69
14 -87 23 -51 27 -47 36 5 11 40 -20 65 -23 163 -25 119 -2 142 2 133 25 -4
10 -34 15 -112 18 -209 7 -232 47 -232 411 l0 187 -40 0 c-40 0 -40 0 -40 40
0 33 -3 38 -17 34 -15 -5 -15 -3 1 10 11 9 15 16 9 16 -7 0 -21 -12 -32 -26z"/>
<path d="M1695 1930 c-4 -6 -3 -15 1 -22 4 -7 3 -8 -4 -4 -9 5 -12 -81 -12
-343 l0 -349 68 -4 c70 -4 94 4 85 28 -3 9 -21 14 -54 14 l-49 0 0 339 c0 289
-2 340 -15 344 -8 4 -17 2 -20 -3z"/>
<path d="M2406 1907 c-3 -12 -6 -41 -6 -64 l0 -43 43 -1 42 -2 -40 -7 c-31 -6
-34 -7 -12 -9 l27 -1 1 -182 c0 -101 3 -201 7 -223 4 -21 7 62 6 185 l-2 225
8 -220 c4 -121 10 -229 14 -240 6 -16 6 -17 -3 -5 -9 13 -11 13 -11 -3 0 -18
76 -107 91 -107 5 0 -6 15 -24 32 -18 18 -21 23 -7 12 14 -12 41 -26 60 -33
41 -12 258 -17 268 -6 4 5 -2 5 -13 2 -19 -7 -20 -7 -1 8 26 20 13 23 -104 27
-118 5 -166 25 -195 83 -18 36 -20 64 -23 278 l-3 237 -40 0 c-36 0 -39 2 -39
28 0 47 -33 69 -44 29z"/>
<path d="M3003 1908 c-5 -7 -10 -44 -12 -82 -3 -64 -2 -68 16 -61 65 27 143
45 196 45 90 0 131 -15 170 -60 39 -46 83 -57 71 -17 -22 72 -66 107 -149 121
-51 9 -166 -9 -222 -34 l-43 -19 -1 52 c-1 29 -1 55 0 60 2 12 -16 8 -26 -5z"/>
<path d="M6285 1870 c-4 -6 -10 -8 -14 -5 -12 7 -48 -35 -66 -77 -32 -78 -14
-158 50 -217 51 -47 68 -55 180 -82 44 -11 97 -26 118 -34 20 -8 37 -13 37
-10 0 9 -51 26 -148 51 -114 29 -151 46 -188 87 l-29 31 39 -33 c45 -38 62
-45 181 -76 111 -28 137 -38 155 -61 9 -11 10 -15 3 -10 -10 5 -13 -2 -12 -26
1 -31 1 -32 9 -8 l8 25 1 -28 c1 -21 5 -28 18 -25 24 4 39 51 27 84 -15 43
-56 65 -176 96 -129 33 -183 63 -205 116 -23 54 -20 133 5 176 12 20 19 36 17
36 -2 0 -7 -5 -10 -10z"/>
<path d="M985 1850 c-4 -6 -11 -8 -16 -4 -5 3 -8 0 -7 -8 2 -7 -2 -12 -9 -11
-27 6 -95 -127 -92 -180 1 -12 6 -2 11 21 5 24 12 42 14 39 2 -2 -1 -28 -7
-58 -11 -50 -8 -170 6 -229 l6 -25 -12 25 c-6 14 -14 66 -18 115 -8 83 -8 85
-10 28 0 -34 4 -86 10 -115 12 -57 51 -142 70 -154 8 -5 10 -3 4 7 -4 8 12 -5
37 -29 59 -56 128 -82 221 -82 39 1 88 7 107 14 69 26 74 27 35 5 -29 -16 -62
-24 -121 -27 -103 -6 -170 15 -231 71 -24 22 -43 35 -43 30 0 -19 91 -82 142
-99 70 -23 197 -16 255 14 24 12 42 27 40 33 -1 7 4 14 12 17 9 3 11 0 6 -9
-5 -8 3 -4 17 9 45 41 30 53 -28 21 -102 -58 -251 -48 -346 24 -30 22 -54 53
-78 101 -31 62 -35 79 -38 169 -5 119 8 188 48 251 16 25 28 46 25 46 -2 0 -7
-5 -10 -10z"/>
<path d="M1181 1850 c-18 -4 -45 -20 -60 -35 l-26 -26 28 10 c40 15 113 14
145 -3 15 -8 38 -27 52 -42 14 -15 19 -24 11 -19 -11 6 -13 4 -6 -11 28 -66
34 -97 35 -165 0 -42 -6 -97 -14 -122 -8 -26 -10 -44 -5 -41 5 3 9 -1 9 -8 1
-25 49 42 61 85 7 23 12 81 12 129 0 74 -4 94 -27 143 -43 88 -125 128 -215
105z"/>
<path d="M3803 1848 c1 -9 -1 -16 -4 -15 -12 3 -50 -37 -67 -68 -14 -29 -14
-29 3 -15 17 14 17 14 3 -15 -8 -16 -18 -37 -22 -45 -3 -8 -4 -1 -1 15 10 55
-12 3 -25 -60 -18 -87 -7 -195 28 -270 28 -58 94 -135 136 -157 11 -6 -5 13
-35 43 -30 30 -37 38 -15 18 70 -63 120 -82 222 -87 94 -4 177 11 233 45 l26
15 -25 -20 c-58 -48 -247 -68 -335 -37 -52 19 -57 18 -20 -2 46 -25 191 -30
271 -8 70 19 158 85 134 100 -9 5 -11 4 -6 -3 4 -7 2 -12 -3 -12 -18 0 -19 0
-63 -16 -24 -8 -77 -18 -119 -21 -111 -8 -204 21 -268 85 -72 73 -94 127 -99
250 -5 117 6 169 50 238 15 25 24 43 19 40 -5 -4 -12 0 -15 6 -3 7 -4 6 -3 -4z"/>
<path d="M4036 1849 c-21 -5 -51 -17 -67 -26 -50 -30 -46 -63 6 -43 41 16 145
11 200 -9 87 -31 91 -32 35 -4 -47 24 -68 28 -140 28 -47 0 -96 -3 -110 -7
-19 -6 -18 -4 5 7 44 21 150 18 215 -6 87 -32 99 -32 97 -1 -2 22 -11 30 -47
43 -60 22 -145 30 -194 18z"/>
<path d="M6458 1851 c-35 -7 -68 -26 -68 -40 0 -3 38 -4 85 -2 66 2 101 -2
156 -19 39 -11 69 -23 67 -25 -2 -2 -32 5 -67 15 -40 13 -91 20 -139 20 -78 0
-119 -11 -88 -23 9 -4 16 -2 16 3 0 18 145 11 211 -10 41 -12 68 -16 78 -10 9
5 12 10 7 10 -5 0 -2 7 5 16 11 14 10 18 -6 30 -42 31 -185 50 -257 35z"/>
<path d="M1955 1841 c-26 -11 -62 -51 -46 -51 7 0 9 -4 6 -10 -4 -7 3 -7 20 0
37 14 90 12 131 -5 19 -8 32 -10 29 -5 -11 18 -79 32 -129 27 -32 -3 -44 -2
-31 3 52 22 144 3 175 -35 9 -11 10 -16 3 -11 -16 9 -16 1 -1 -27 8 -15 15
-105 19 -272 l6 -250 -1 254 c0 140 2 237 6 215 4 -21 7 -134 7 -251 l1 -211
66 -4 c36 -1 71 1 78 5 6 6 3 7 -9 3 -19 -6 -19 -5 -3 7 25 19 12 27 -43 27
l-48 0 -3 253 c-3 277 -7 294 -68 331 -30 17 -129 21 -165 7z"/>
<path d="M3003 1591 c1 -3 -2 -8 -8 -9 -44 -15 -75 -88 -73 -172 l1 -65 7 75
c3 41 12 85 18 98 20 35 23 26 6 -15 -11 -26 -15 -60 -12 -109 2 -40 0 -67 -4
-61 -6 9 -8 9 -8 -1 0 -21 20 -53 29 -47 5 2 15 -3 22 -13 13 -15 12 -16 -3
-3 -32 25 -19 -7 15 -35 60 -51 111 -67 201 -62 81 5 148 28 143 49 -1 7 4 14
12 17 9 3 11 0 6 -8 -5 -9 -4 -11 4 -6 6 4 9 11 6 16 -3 5 0 12 6 16 7 4 10 3
7 -2 -3 -5 -2 -18 3 -29 7 -16 8 -13 6 13 -2 18 1 36 7 42 8 6 10 -3 8 -30
l-4 -38 69 -4 c71 -4 96 4 86 28 -3 9 -21 14 -54 14 l-49 0 0 46 0 46 -39 -35
c-66 -60 -96 -71 -191 -72 -96 0 -147 20 -193 75 -52 61 -61 184 -19 254 14
24 16 33 6 33 -7 0 -12 -3 -11 -6z"/>
<path d="M3191 1580 c-32 -8 -69 -35 -60 -44 2 -3 22 -1 44 4 22 5 85 9 140 8
l100 -1 -125 -7 c-73 -3 -133 -11 -145 -19 l-20 -13 20 8 c11 3 68 9 128 12
l107 5 0 -36 c0 -20 -4 -47 -10 -61 -5 -14 -7 -33 -3 -41 5 -14 8 -14 26 2 27
25 44 67 52 136 l7 57 -113 -1 c-63 -1 -129 -5 -148 -9z"/>
<path d="M6211 1374 c-17 -21 -21 -39 -19 -88 l1 -61 7 60 7 60 1 -57 2 -57
58 -18 c40 -12 92 -17 177 -18 114 0 124 2 182 30 74 37 74 26 0 -12 -72 -37
-225 -44 -337 -15 -90 24 -106 20 -24 -5 44 -13 92 -18 184 -18 116 0 129 2
175 27 52 27 97 69 101 92 1 9 -14 4 -43 -14 -85 -54 -214 -63 -365 -25 l-68
17 0 54 c0 31 -4 54 -11 54 -5 0 -7 5 -4 10 13 20 -4 9 -24 -16z"/>
</g>
</svg>
