<?xml version="1.0" standalone="no"?>
<!DOCTYPE svg PUBLIC "-//W3C//DTD SVG 20010904//EN"
 "http://www.w3.org/TR/2001/REC-SVG-20010904/DTD/svg10.dtd">
<svg version="1.0" xmlns="http://www.w3.org/2000/svg"
 width="224.000000pt" height="225.000000pt" viewBox="0 0 224.000000 225.000000"
 preserveAspectRatio="xMidYMid meet">
<metadata>
Created by potrace 1.16, written by Peter Selinger 2001-2019
</metadata>
<g transform="translate(0.000000,225.000000) scale(0.100000,-0.100000)"
fill="#000000" stroke="none">
<path d="M916 2094 c-188 -23 -191 -24 -315 -79 l-126 -57 -179 -215 c-160
-193 -178 -218 -167 -236 7 -10 55 -73 107 -138 l95 -119 54 0 c30 0 55 3 54
8 0 4 -24 36 -54 72 -29 36 -52 66 -50 68 1 2 40 -12 85 -31 76 -32 81 -35 57
-43 l-26 -9 22 -35 22 -35 9 82 c5 45 6 88 3 95 -2 8 -52 33 -111 57 -58 24
-106 46 -106 49 0 2 41 1 91 -3 108 -8 119 -2 119 64 0 80 6 90 51 84 32 -5
45 -1 66 18 l26 24 -12 -23 c-7 -13 -11 -25 -9 -27 2 -2 30 -8 63 -14 33 -6
70 -13 83 -17 l23 -7 -21 54 -20 54 47 -55 c104 -119 91 -110 170 -113 39 -1
74 1 78 4 3 4 -2 34 -11 67 l-17 60 -76 31 -76 31 65 -6 c36 -3 83 -9 105 -13
l40 -7 3 -87 3 -87 44 0 45 0 0 88 0 89 94 11 c130 16 132 15 44 -19 l-78 -30
-18 -62 -18 -62 23 -7 c12 -3 50 -4 83 -1 55 5 62 9 80 39 12 18 25 34 29 36
5 2 25 23 45 46 41 50 41 50 22 -6 l-15 -41 27 4 c15 2 53 7 84 10 54 6 57 8
47 27 -6 11 -8 22 -6 25 3 2 11 -5 17 -17 10 -20 18 -22 61 -18 l49 5 0 -67
c0 -90 5 -93 122 -86 l93 6 -60 -29 c-33 -17 -81 -38 -107 -47 l-48 -18 0 -88
c0 -48 3 -88 7 -88 4 0 17 12 29 27 l22 28 -25 10 c-23 9 -18 13 61 47 47 20
84 33 82 30 -2 -4 -29 -38 -60 -77 l-56 -70 40 -7 c22 -4 44 -10 49 -13 5 -3
62 61 126 141 101 129 114 149 102 163 -8 9 -90 108 -184 221 l-170 205 -124
53 c-121 52 -128 53 -324 77 -110 14 -202 24 -205 24 -3 -1 -90 -12 -194 -25z
m421 -95 c117 -15 180 -28 219 -45 30 -13 54 -26 54 -28 0 -3 -24 -10 -53 -16
-61 -12 -300 -28 -289 -19 4 3 49 15 101 25 110 22 106 24 -104 48 -148 18
-152 18 -309 -3 -88 -12 -161 -23 -163 -25 -2 -2 36 -11 84 -21 86 -17 152
-40 88 -30 -16 2 -75 7 -130 10 -55 3 -125 11 -155 18 l-55 13 65 27 c47 20
105 33 210 46 193 25 244 25 437 0z"/>
<path d="M530 1438 l0 -213 -115 4 -115 3 0 -307 c0 -287 1 -306 18 -301 9 3
49 12 87 21 88 20 142 40 180 69 24 18 55 26 150 37 148 17 586 18 740 1 159
-18 165 -20 165 -47 0 -20 8 -24 89 -39 109 -20 132 -20 176 -1 l35 14 -2 253
-3 252 -34 20 c-23 13 -59 21 -112 24 l-79 5 0 209 0 210 -27 -6 c-24 -5 -256
-36 -269 -36 -2 0 -4 -13 -4 -29 0 -27 -4 -30 -43 -36 -23 -4 -152 -5 -285 -3
-233 3 -242 4 -257 24 -19 28 -78 51 -162 64 -37 5 -83 12 -100 15 l-33 6 0
-213z m150 142 c103 -18 110 -26 110 -117 0 -54 -4 -81 -15 -93 -14 -15 -14
-18 0 -30 11 -9 15 -32 15 -80 0 -62 -2 -68 -25 -78 -14 -7 -62 -12 -105 -12
l-80 0 0 214 c0 199 1 214 18 211 9 -2 46 -9 82 -15z m990 -77 c0 -76 -4 -100
-17 -115 -15 -17 -15 -19 0 -36 13 -14 17 -38 17 -100 l0 -82 -45 0 -45 0 0
80 c0 73 -2 80 -20 80 -18 0 -20 -7 -20 -80 l0 -80 -40 0 -40 0 0 200 c0 110
4 200 9 200 5 0 23 3 40 6 l31 7 0 -97 c0 -87 2 -97 18 -94 14 3 18 18 22 98
l5 95 35 6 c19 4 38 7 43 8 4 0 7 -43 7 -96z m-284 -4 l44 -11 0 -53 c0 -46
-3 -53 -22 -59 -49 -13 -58 -8 -58 29 0 28 -4 35 -20 35 -19 0 -20 -7 -20
-110 0 -103 1 -110 20 -110 17 0 20 7 20 40 l0 40 40 0 40 0 0 -59 c0 -57 -1
-59 -31 -70 -44 -15 -103 -14 -144 3 l-35 15 0 140 c0 155 -1 153 75 172 43
10 42 10 91 -2z m-486 -129 l0 -130 35 0 c33 0 35 -2 35 -35 l0 -35 -80 0 -80
0 0 165 0 165 45 0 45 0 0 -130z m265 116 l35 -15 0 -149 0 -150 -41 -4 c-22
-2 -42 -2 -45 1 -2 2 -4 31 -4 63 0 45 -3 58 -15 58 -12 0 -15 -13 -15 -58 0
-32 -2 -61 -4 -63 -3 -3 -23 -3 -45 -1 l-41 4 0 150 0 149 33 14 c42 18 99 19
142 1z m-630 -318 l25 -11 0 -202 c0 -202 0 -203 -24 -218 -21 -14 -88 -36
-158 -51 l-28 -6 0 250 0 250 80 0 c43 0 91 -5 105 -12z m1349 -7 c15 -12 16
-38 14 -235 l-3 -221 -80 1 c-44 1 -91 6 -105 12 l-25 10 3 227 3 227 88 -4
c56 -2 94 -8 105 -17z m-999 -33 l25 -11 0 -154 0 -153 -45 0 -45 0 0 55 c0
48 -2 55 -20 55 -18 0 -20 -7 -20 -60 0 -57 -1 -60 -24 -60 -13 0 -31 -3 -40
-6 -14 -5 -16 13 -16 160 0 91 1 166 3 166 1 0 20 7 42 15 42 16 96 13 140 -7z
m519 1 l26 -12 0 -148 0 -147 -36 -12 c-39 -13 -105 -8 -148 11 l-27 12 3 146
3 146 35 12 c39 14 103 10 144 -8z m-734 -163 c0 -172 0 -174 -22 -180 -13 -3
-33 -6 -45 -6 -23 0 -23 0 -23 173 0 96 3 177 7 180 3 4 24 7 45 7 l38 0 0
-174z m356 152 c3 -12 13 -37 21 -57 l15 -36 22 55 c21 53 23 55 64 58 l42 3
0 -160 0 -161 -40 0 -40 0 -1 78 -1 77 -23 -50 -23 -50 -18 39 -19 39 -5 -69
-5 -69 -42 -3 -43 -3 0 165 0 166 44 0 c37 0 46 -4 52 -22z m524 -25 l30 -48
0 48 0 47 40 0 40 0 0 -183 0 -183 -40 4 -40 4 0 67 c-1 46 -7 77 -20 101
l-19 35 -1 -99 0 -98 -31 6 c-17 3 -38 6 -45 6 -11 0 -14 32 -14 170 l0 170
35 0 c31 0 38 -6 65 -47z"/>
<path d="M1080 628 c-1 -142 2 -143 -81 12 l-54 102 -95 -6 c-51 -4 -96 -8
-98 -11 -2 -2 80 -110 183 -240 103 -130 191 -233 195 -228 32 36 352 448 357
459 4 12 -12 14 -93 14 l-99 0 -62 -113 -62 -112 -1 123 0 122 -45 0 -45 0 0
-122z"/>
</g>
</svg>
