<svg id="svg" version="1.1" xmlns="http://www.w3.org/2000/svg" xmlns:xlink="http://www.w3.org/1999/xlink" width="400" height="400" viewBox="0, 0, 400,400"><g id="svgg"><path id="path0" d="M274.454 176.100 C 274.512 179.154,274.691 178.821,274.884 175.300 C 274.948 174.145,274.865 173.200,274.700 173.200 C 274.535 173.200,274.425 174.505,274.454 176.100 M283.145 173.733 C 283.439 174.089,283.623 178.063,283.694 185.633 L 283.800 197.000 285.441 197.000 L 287.082 197.000 287.165 199.591 C 287.211 201.016,287.336 202.269,287.443 202.377 C 287.551 202.484,287.585 201.228,287.519 199.586 L 287.400 196.600 285.700 196.477 L 284.000 196.354 284.000 184.777 C 284.000 174.365,283.935 173.200,283.351 173.200 C 282.856 173.200,282.807 173.326,283.145 173.733 M139.632 174.290 C 139.650 174.709,139.746 174.795,139.865 174.500 C 140.013 174.133,141.578 174.000,145.753 174.000 C 149.753 174.000,151.597 174.148,151.970 174.500 C 152.398 174.904,152.465 174.884,152.317 174.400 C 152.014 173.405,139.587 173.298,139.632 174.290 M154.276 173.857 C 153.394 174.740,154.002 180.000,154.987 180.000 C 155.761 180.000,155.918 180.152,155.713 180.700 C 155.483 181.313,155.534 181.332,156.125 180.851 C 157.133 180.031,156.945 179.600,155.582 179.600 L 154.363 179.600 154.482 176.900 L 154.600 174.200 160.145 174.088 C 166.630 173.958,166.800 174.032,166.800 176.988 C 166.800 178.760,166.663 179.144,165.900 179.512 C 165.020 179.936,165.024 179.946,166.117 179.973 L 167.234 180.000 167.117 176.900 L 167.000 173.800 160.776 173.690 C 157.353 173.630,154.428 173.705,154.276 173.857 M150.920 179.480 C 150.027 179.653,150.356 181.600,151.278 181.600 C 151.471 181.600,151.435 181.240,151.200 180.800 C 150.787 180.028,151.045 179.786,152.100 179.953 C 152.265 179.979,152.400 179.820,152.400 179.600 C 152.400 179.380,152.265 179.225,152.100 179.254 C 151.935 179.284,151.404 179.386,150.920 179.480 M141.451 180.035 C 142.283 180.276,142.868 180.800,143.199 181.599 C 143.473 182.259,143.841 182.800,144.018 182.800 C 144.562 182.800,143.184 180.420,142.396 179.998 C 141.987 179.779,141.326 179.616,140.926 179.636 C 140.527 179.656,140.763 179.835,141.451 180.035 M163.216 181.275 C 162.767 181.757,162.400 182.387,162.400 182.675 C 162.400 182.964,162.239 183.200,162.043 183.200 C 161.846 183.200,161.582 183.470,161.455 183.800 C 161.017 184.941,161.935 184.396,162.464 183.200 C 162.756 182.540,163.125 182.000,163.284 182.000 C 163.442 182.000,163.765 181.640,164.000 181.200 C 164.561 180.152,164.233 180.184,163.216 181.275 M154.655 182.200 C 154.523 182.544,154.647 182.800,154.946 182.800 C 155.232 182.800,155.467 182.530,155.467 182.200 C 155.467 181.870,155.336 181.600,155.176 181.600 C 155.016 181.600,154.782 181.870,154.655 182.200 M223.773 181.959 C 224.495 182.242,226.400 182.093,226.400 181.753 C 226.400 181.669,225.635 181.613,224.700 181.628 C 223.497 181.648,223.226 181.745,223.773 181.959 M175.838 182.339 C 175.722 182.526,176.971 182.661,178.613 182.639 C 180.255 182.618,181.598 182.465,181.599 182.300 C 181.600 181.884,176.096 181.921,175.838 182.339 M198.200 182.400 C 197.921 182.852,198.825 182.852,200.600 182.400 C 201.733 182.112,201.707 182.092,200.124 182.047 C 199.202 182.021,198.336 182.180,198.200 182.400 M202.033 182.144 C 202.505 182.550,204.443 182.793,204.210 182.416 C 204.068 182.187,203.483 182.000,202.910 182.000 C 202.336 182.000,201.942 182.065,202.033 182.144 M250.000 182.349 C 250.000 182.541,250.855 182.715,251.900 182.736 C 253.245 182.762,253.625 182.662,253.200 182.393 C 252.445 181.914,250.000 181.881,250.000 182.349 M270.349 182.677 C 269.875 183.261,269.882 183.304,270.400 182.991 C 270.730 182.791,271.720 182.509,272.600 182.364 L 274.200 182.100 272.549 182.050 C 271.435 182.016,270.719 182.220,270.349 182.677 M274.800 182.400 C 275.583 182.906,276.400 182.906,276.400 182.400 C 276.400 182.180,275.905 182.003,275.300 182.006 C 274.443 182.011,274.332 182.098,274.800 182.400 M316.000 182.383 C 316.000 182.594,317.150 182.734,318.569 182.695 C 319.983 182.656,321.052 182.484,320.946 182.312 C 320.667 181.861,316.000 181.927,316.000 182.383 M172.307 184.013 C 171.300 184.679,170.365 185.515,170.229 185.869 C 169.948 186.602,170.534 186.203,172.276 184.478 C 172.788 183.972,173.340 183.638,173.503 183.736 C 173.667 183.835,174.032 183.665,174.316 183.358 C 175.177 182.426,174.242 182.731,172.307 184.013 M182.800 183.133 C 183.130 183.336,183.850 183.624,184.400 183.771 C 185.095 183.957,185.217 183.925,184.800 183.667 C 184.470 183.464,183.750 183.176,183.200 183.029 C 182.505 182.843,182.383 182.875,182.800 183.133 M195.896 183.234 C 194.455 184.073,191.887 186.972,192.943 186.566 C 193.305 186.428,193.600 186.179,193.600 186.014 C 193.600 185.849,194.536 185.058,195.681 184.257 C 197.534 182.960,197.697 182.186,195.896 183.234 M211.400 192.562 C 211.400 197.931,211.535 202.241,211.700 202.138 C 211.865 202.036,212.000 197.643,212.000 192.376 C 212.000 187.109,211.865 182.800,211.700 182.800 C 211.535 182.800,211.400 187.193,211.400 192.562 M229.733 183.439 C 229.733 183.766,229.947 183.952,230.208 183.852 C 230.469 183.752,230.977 184.014,231.337 184.435 C 231.697 184.856,231.891 185.200,231.768 185.200 C 231.644 185.200,231.813 185.470,232.143 185.800 C 233.017 186.674,233.300 186.534,232.749 185.500 C 231.932 183.966,229.733 182.463,229.733 183.439 M236.412 185.600 C 236.412 187.683,236.531 188.417,236.800 188.000 C 237.013 187.670,237.188 186.590,237.188 185.600 C 237.188 184.610,237.013 183.530,236.800 183.200 C 236.531 182.783,236.412 183.517,236.412 185.600 M268.009 183.327 C 267.066 183.777,264.800 185.892,264.800 186.321 C 264.800 186.497,266.230 185.398,266.800 184.785 C 266.910 184.666,267.630 184.174,268.400 183.691 C 269.890 182.757,269.658 182.540,268.009 183.327 M288.854 185.500 C 288.825 187.095,288.935 188.400,289.100 188.400 C 289.265 188.400,289.348 187.455,289.284 186.300 C 289.091 182.779,288.912 182.446,288.854 185.500 M306.100 183.076 C 306.700 183.233,306.800 183.764,306.800 186.812 L 306.800 190.365 304.100 190.509 L 301.400 190.652 304.200 190.626 L 307.000 190.600 307.114 186.700 C 307.227 182.859,307.215 182.801,306.314 182.846 C 305.637 182.881,305.581 182.940,306.100 183.076 M144.744 183.878 C 145.254 184.850,146.000 185.449,146.000 184.886 C 146.000 184.687,145.614 184.181,145.142 183.762 C 144.290 183.005,144.287 183.006,144.744 183.878 M154.000 183.843 C 154.000 184.214,153.775 184.399,153.467 184.281 C 153.173 184.168,152.933 184.319,152.933 184.617 C 152.933 185.016,153.124 185.055,153.667 184.764 C 154.313 184.419,154.728 183.200,154.200 183.200 C 154.090 183.200,154.000 183.489,154.000 183.843 M311.900 183.476 C 311.515 183.576,311.200 183.832,311.200 184.043 C 311.200 184.284,311.479 184.279,311.947 184.028 C 312.358 183.808,312.808 183.742,312.947 183.881 C 313.086 184.020,313.200 183.923,313.200 183.667 C 313.200 183.184,313.082 183.167,311.900 183.476 M323.200 183.597 C 323.200 183.844,323.353 183.953,323.539 183.837 C 323.726 183.722,324.278 184.000,324.766 184.454 C 325.766 185.386,326.176 185.329,325.466 184.358 C 324.867 183.539,323.200 182.979,323.200 183.597 M185.883 185.188 C 186.254 185.621,186.638 185.896,186.736 185.798 C 186.974 185.559,185.995 184.400,185.555 184.400 C 185.364 184.400,185.511 184.755,185.883 185.188 M216.249 185.771 C 215.665 186.537,215.123 187.666,215.045 188.282 C 214.967 188.897,214.990 189.130,215.096 188.800 C 215.202 188.470,215.818 187.413,216.463 186.452 C 217.888 184.332,217.730 183.830,216.249 185.771 M310.087 184.737 C 309.708 184.979,309.681 185.313,309.984 186.031 C 310.309 186.802,310.375 186.836,310.306 186.200 C 310.259 185.760,310.361 185.175,310.534 184.900 C 310.897 184.321,310.800 184.285,310.087 184.737 M160.229 185.429 C 159.504 186.153,159.442 186.400,159.986 186.400 C 160.198 186.400,160.565 186.040,160.800 185.600 C 161.314 184.639,161.086 184.571,160.229 185.429 M257.911 185.974 C 258.282 186.620,258.638 187.095,258.704 187.030 C 258.954 186.779,258.000 184.800,257.629 184.800 C 257.413 184.800,257.540 185.328,257.911 185.974 M147.278 187.495 C 149.099 190.094,150.461 191.537,149.265 189.600 C 147.386 186.556,146.980 186.005,146.478 185.810 C 146.191 185.699,146.551 186.457,147.278 187.495 M187.200 186.800 C 187.200 187.547,187.307 187.653,187.680 187.280 C 188.053 186.907,188.053 186.693,187.680 186.320 C 187.307 185.947,187.200 186.053,187.200 186.800 M326.434 186.600 C 326.422 187.040,326.587 187.670,326.800 188.000 C 327.314 188.795,327.314 187.796,326.800 186.600 L 326.456 185.800 326.434 186.600 M158.803 187.527 C 157.914 188.490,156.341 190.874,156.494 191.027 C 156.567 191.100,157.305 190.248,158.133 189.133 C 159.609 187.147,159.984 186.248,158.803 187.527 M169.063 187.683 C 168.771 188.796,169.086 189.171,169.461 188.157 C 169.616 187.741,169.935 187.268,170.171 187.106 C 170.435 186.925,170.349 186.810,169.947 186.806 C 169.587 186.803,169.189 187.197,169.063 187.683 M223.563 187.223 C 223.275 187.401,222.895 187.458,222.719 187.350 C 222.544 187.242,222.400 187.363,222.400 187.619 C 222.400 187.910,222.664 187.974,223.100 187.789 C 223.485 187.625,224.205 187.514,224.700 187.541 C 225.797 187.602,225.873 187.365,224.844 187.096 C 224.429 186.987,223.852 187.044,223.563 187.223 M233.502 187.800 C 233.607 188.350,233.872 188.800,234.089 188.800 C 234.307 188.800,234.376 188.515,234.243 188.167 C 234.109 187.819,234.000 187.369,234.000 187.167 C 234.000 186.965,233.845 186.800,233.655 186.800 C 233.466 186.800,233.397 187.250,233.502 187.800 M263.852 188.146 C 263.494 188.902,263.204 189.764,263.209 190.060 C 263.214 190.357,263.577 189.808,264.016 188.840 C 264.455 187.873,264.745 187.011,264.659 186.926 C 264.574 186.841,264.211 187.390,263.852 188.146 M226.193 187.646 C 226.016 187.951,226.022 188.064,226.206 187.897 C 226.389 187.730,226.867 188.090,227.267 188.697 C 227.667 189.304,227.992 189.620,227.988 189.400 C 227.974 188.489,226.525 187.073,226.193 187.646 M311.018 188.100 C 311.168 188.595,311.424 189.145,311.587 189.322 C 311.975 189.743,314.000 189.232,314.000 188.714 C 314.000 188.494,313.685 188.437,313.300 188.587 C 312.040 189.077,311.821 189.011,311.682 188.100 C 311.606 187.605,311.365 187.200,311.145 187.200 C 310.917 187.200,310.863 187.586,311.018 188.100 M178.800 187.781 C 178.800 187.881,179.423 188.258,180.185 188.620 C 180.947 188.981,181.679 189.620,181.812 190.039 C 181.945 190.457,182.234 190.800,182.454 190.800 C 183.155 190.800,181.147 188.360,180.127 187.972 C 179.025 187.553,178.800 187.521,178.800 187.781 M191.400 188.400 C 191.250 188.873,191.217 189.350,191.327 189.460 C 191.437 189.570,191.650 189.273,191.800 188.800 C 191.950 188.327,191.983 187.850,191.873 187.740 C 191.763 187.630,191.550 187.927,191.400 188.400 M274.793 188.296 C 275.119 188.424,275.627 188.770,275.921 189.064 C 276.216 189.359,276.669 189.596,276.929 189.591 C 277.188 189.586,276.950 189.230,276.400 188.800 C 275.850 188.370,275.130 188.028,274.800 188.040 C 274.274 188.060,274.274 188.092,274.793 188.296 M175.602 189.300 C 174.660 190.736,174.008 192.400,174.388 192.400 C 174.579 192.400,174.855 191.859,175.001 191.197 C 175.146 190.535,175.610 189.809,176.033 189.583 C 176.455 189.357,176.800 188.998,176.800 188.786 C 176.800 188.115,176.214 188.367,175.602 189.300 M198.400 189.495 C 197.486 190.401,197.476 190.448,198.278 190.041 C 199.149 189.599,199.809 188.858,199.540 188.625 C 199.463 188.559,198.950 188.950,198.400 189.495 M203.600 188.755 C 203.600 189.195,204.759 190.174,204.998 189.936 C 205.096 189.838,204.821 189.454,204.388 189.083 C 203.955 188.711,203.600 188.564,203.600 188.755 M239.284 192.300 L 239.200 196.400 237.800 196.400 L 236.400 196.400 236.400 199.400 C 236.400 201.336,236.558 202.400,236.845 202.400 C 237.144 202.400,237.239 201.490,237.134 199.628 L 236.977 196.855 238.082 197.076 C 239.545 197.369,239.658 196.978,239.499 192.172 L 239.367 188.200 239.284 192.300 M247.134 188.669 C 246.478 188.843,245.754 190.008,246.313 189.991 C 246.471 189.986,247.050 189.630,247.600 189.200 C 248.579 188.434,248.474 188.314,247.134 188.669 M270.800 189.000 C 270.517 189.341,270.376 189.709,270.486 189.819 C 270.596 189.929,270.917 189.741,271.200 189.400 C 271.483 189.059,271.624 188.691,271.514 188.581 C 271.404 188.471,271.083 188.659,270.800 189.000 M320.200 189.200 C 320.908 189.982,320.898 190.001,319.762 190.040 C 318.613 190.079,318.611 190.083,319.600 190.379 C 320.150 190.544,320.750 190.547,320.933 190.387 C 321.310 190.055,320.401 188.400,319.842 188.400 C 319.641 188.400,319.802 188.760,320.200 189.200 M188.538 189.787 C 188.792 190.330,189.062 190.594,189.138 190.374 C 189.334 189.805,188.895 188.800,188.450 188.800 C 188.241 188.800,188.279 189.235,188.538 189.787 M312.484 190.806 C 311.066 191.570,309.465 193.198,309.802 193.535 C 309.915 193.649,310.375 193.349,310.822 192.868 C 312.285 191.298,313.613 190.678,316.126 190.391 L 318.600 190.109 316.200 190.104 C 314.656 190.100,313.330 190.351,312.484 190.806 M214.267 190.667 C 213.834 191.100,213.963 194.400,214.413 194.400 C 214.710 194.400,214.864 190.417,214.567 190.402 C 214.548 190.401,214.413 190.520,214.267 190.667 M234.324 192.300 L 234.200 193.800 227.532 194.000 C 223.865 194.110,220.738 194.327,220.583 194.482 C 220.182 194.886,222.704 197.301,223.302 197.085 C 223.590 196.981,223.351 196.694,222.734 196.404 C 219.546 194.905,220.883 194.400,228.037 194.400 L 234.800 194.400 234.800 192.600 C 234.800 190.417,234.496 190.225,234.324 192.300 M298.079 193.267 C 297.965 197.097,299.209 198.345,301.600 196.800 C 302.034 196.519,301.680 196.411,300.318 196.406 L 298.435 196.400 298.297 193.500 L 298.159 190.600 298.079 193.267 M149.677 193.676 L 149.600 196.352 148.100 196.476 L 146.600 196.600 146.482 199.500 C 146.418 201.095,146.508 202.400,146.682 202.401 C 146.857 202.401,147.000 201.186,147.000 199.701 L 147.000 197.000 148.301 197.130 C 149.910 197.291,150.085 196.899,149.898 193.558 L 149.754 191.000 149.677 193.676 M188.715 195.200 C 188.618 195.860,188.687 196.400,188.869 196.400 C 189.051 196.400,189.200 195.860,189.200 195.200 C 189.200 194.540,189.130 194.000,189.045 194.000 C 188.960 194.000,188.812 194.540,188.715 195.200 M197.600 194.339 C 197.600 194.592,197.960 195.160,198.400 195.600 C 198.840 196.040,199.200 196.248,199.200 196.061 C 199.200 195.875,198.840 195.307,198.400 194.800 C 197.960 194.293,197.600 194.085,197.600 194.339 M263.456 195.771 C 263.625 197.067,263.869 197.465,264.257 197.076 C 264.398 196.935,264.328 196.590,264.100 196.310 C 263.872 196.029,263.600 195.530,263.495 195.200 C 263.389 194.870,263.372 195.127,263.456 195.771 M321.079 194.700 C 320.663 195.442,320.399 197.248,320.738 197.038 C 320.941 196.913,321.187 196.268,321.285 195.605 C 321.461 194.404,321.399 194.130,321.079 194.700 M175.445 195.812 C 175.810 196.369,176.202 196.731,176.317 196.616 C 176.432 196.501,176.772 196.611,177.073 196.860 C 177.373 197.110,177.717 197.216,177.837 197.096 C 177.957 196.976,177.503 196.552,176.828 196.153 C 176.152 195.754,175.600 195.286,175.600 195.114 C 175.600 194.941,175.416 194.800,175.191 194.800 C 174.966 194.800,175.080 195.256,175.445 195.812 M270.000 195.111 C 270.000 195.572,271.392 196.680,272.357 196.986 C 272.855 197.144,273.200 197.079,273.200 196.827 C 273.200 196.592,272.842 196.400,272.403 196.400 C 271.965 196.400,271.382 196.040,271.107 195.600 C 270.606 194.797,270.000 194.530,270.000 195.111 M276.293 195.600 C 275.916 196.040,275.336 196.400,275.004 196.400 C 274.672 196.400,274.400 196.550,274.400 196.733 C 274.400 197.447,275.630 197.012,276.664 195.933 C 277.261 195.310,277.576 194.800,277.364 194.800 C 277.151 194.800,276.670 195.160,276.293 195.600 M315.235 195.358 C 314.477 196.271,315.366 197.973,316.600 197.975 C 316.820 197.975,316.685 197.792,316.300 197.568 C 315.558 197.136,315.324 195.600,316.000 195.600 C 316.220 195.600,316.400 195.420,316.400 195.200 C 316.400 194.623,315.774 194.708,315.235 195.358 M168.617 196.201 C 168.772 196.860,169.155 197.670,169.468 198.000 C 169.905 198.460,169.884 198.227,169.377 197.000 C 168.536 194.965,168.257 194.672,168.617 196.201 M191.416 196.100 C 191.564 196.595,191.929 197.256,192.227 197.570 C 192.683 198.050,192.697 197.908,192.317 196.670 C 192.069 195.861,191.704 195.200,191.506 195.200 C 191.308 195.200,191.268 195.605,191.416 196.100 M180.300 196.276 C 179.915 196.376,179.600 196.625,179.600 196.829 C 179.600 197.353,180.074 197.270,180.976 196.587 C 181.754 195.999,181.610 195.933,180.300 196.276 M200.019 196.579 C 200.480 197.040,203.150 197.010,203.622 196.538 C 203.808 196.352,202.988 196.200,201.800 196.200 C 200.439 196.200,199.780 196.340,200.019 196.579 M228.900 196.282 C 228.405 196.378,228.000 196.607,228.000 196.792 C 228.000 197.226,228.783 197.097,229.800 196.497 C 230.619 196.013,230.475 195.979,228.900 196.282 M156.400 196.809 C 156.400 197.093,157.031 197.216,158.100 197.140 L 159.800 197.019 159.800 199.710 C 159.800 201.190,159.943 202.401,160.118 202.401 C 160.292 202.400,160.382 201.095,160.318 199.500 L 160.200 196.600 158.300 196.478 C 157.081 196.400,156.400 196.518,156.400 196.809 M246.000 196.800 C 246.000 197.310,248.010 197.310,248.800 196.800 C 249.239 196.516,248.945 196.411,247.700 196.406 C 246.765 196.403,246.000 196.580,246.000 196.800 M258.800 196.800 C 258.800 197.278,259.888 197.278,261.000 196.800 C 261.642 196.524,261.503 196.451,260.300 196.428 C 259.475 196.413,258.800 196.580,258.800 196.800 M288.800 199.400 C 288.800 201.050,288.935 202.400,289.100 202.401 C 289.265 202.401,289.340 201.143,289.267 199.604 L 289.135 196.807 290.319 197.044 C 291.003 197.181,291.618 197.095,291.775 196.840 C 291.956 196.548,291.503 196.400,290.424 196.400 L 288.800 196.400 288.800 199.400 M326.961 196.862 C 326.755 197.196,327.093 197.257,328.170 197.082 L 329.664 196.840 329.532 199.621 C 329.459 201.150,329.535 202.401,329.700 202.401 C 329.865 202.400,330.000 201.050,330.000 199.400 L 330.000 196.400 328.624 196.400 C 327.867 196.400,327.119 196.608,326.961 196.862 M215.357 197.833 C 215.491 198.181,215.600 198.541,215.600 198.633 C 215.600 198.725,215.763 198.800,215.963 198.800 C 216.162 198.800,216.231 198.440,216.116 198.000 C 216.001 197.560,215.728 197.200,215.511 197.200 C 215.293 197.200,215.224 197.485,215.357 197.833 M232.018 198.034 C 232.264 198.493,232.544 198.789,232.642 198.692 C 232.922 198.412,232.354 197.200,231.943 197.200 C 231.739 197.200,231.773 197.575,232.018 198.034 M301.728 200.000 C 301.728 201.430,301.801 202.015,301.889 201.300 C 301.978 200.585,301.978 199.415,301.889 198.700 C 301.801 197.985,301.728 198.570,301.728 200.000 M192.800 198.677 C 192.800 198.875,193.346 199.479,194.013 200.019 C 194.679 200.558,195.444 201.192,195.713 201.428 C 196.355 201.992,198.000 202.411,198.000 202.011 C 198.000 201.838,197.425 201.459,196.722 201.168 C 196.019 200.876,194.849 200.116,194.122 199.478 C 193.395 198.839,192.800 198.479,192.800 198.677 M170.482 199.583 C 171.045 200.483,172.062 201.026,171.772 200.271 C 171.669 200.002,171.224 199.558,170.783 199.282 C 170.043 198.820,170.020 198.843,170.482 199.583 M216.786 199.973 C 217.013 200.398,217.559 200.860,218.000 201.000 C 218.440 201.140,218.800 201.422,218.800 201.627 C 218.800 201.832,219.015 202.000,219.278 202.000 C 219.541 202.000,219.069 201.370,218.228 200.600 C 216.484 199.003,216.200 198.879,216.786 199.973 M309.852 199.848 C 310.065 200.632,312.000 202.295,312.000 201.694 C 312.000 201.504,311.471 200.843,310.824 200.223 C 309.901 199.339,309.692 199.258,309.852 199.848 M266.101 199.971 C 266.181 200.286,266.589 200.736,267.007 200.971 C 267.425 201.207,268.012 201.625,268.312 201.900 C 268.612 202.175,269.069 202.396,269.329 202.391 C 269.936 202.380,267.957 200.821,267.320 200.809 C 267.056 200.804,266.640 200.485,266.397 200.100 C 266.140 199.694,266.015 199.640,266.101 199.971 M172.400 201.198 C 172.400 201.721,173.945 202.492,174.522 202.258 C 174.785 202.151,174.685 202.049,174.300 202.032 C 173.915 202.014,173.600 201.839,173.600 201.643 C 173.600 201.446,173.330 201.182,173.000 201.055 C 172.670 200.929,172.400 200.993,172.400 201.198 M229.800 201.978 C 228.033 202.814,228.365 203.049,230.340 202.361 C 231.033 202.119,231.600 201.759,231.600 201.561 C 231.600 201.105,231.689 201.084,229.800 201.978 M202.800 202.254 C 201.329 202.780,202.155 202.891,204.200 202.442 C 204.967 202.273,205.184 202.101,204.800 201.965 C 204.470 201.848,203.570 201.978,202.800 202.254 M204.019 204.105 L 203.095 205.400 204.226 204.312 C 204.849 203.714,205.264 203.131,205.150 203.017 C 205.036 202.903,204.527 203.393,204.019 204.105 M211.167 203.100 C 211.148 203.265,211.088 203.805,211.034 204.300 C 210.979 204.795,211.084 205.200,211.267 205.200 C 211.450 205.200,211.600 204.660,211.600 204.000 C 211.600 202.962,211.260 202.256,211.167 203.100 M193.650 205.117 C 192.540 206.849,192.315 208.833,193.200 209.088 C 193.648 209.217,193.672 209.170,193.295 208.904 C 192.179 208.114,194.513 203.784,195.698 204.447 C 196.121 204.684,196.447 204.648,196.635 204.343 C 196.815 204.052,196.750 203.984,196.462 204.162 C 196.208 204.319,196.000 204.257,196.000 204.024 C 196.000 203.056,194.533 203.739,193.650 205.117 M200.305 205.483 C 200.802 205.579,201.522 205.575,201.905 205.475 C 202.287 205.375,201.880 205.296,201.000 205.301 C 200.120 205.305,199.807 205.387,200.305 205.483 M208.821 207.812 C 208.283 208.342,207.936 208.869,208.050 208.984 C 208.165 209.098,208.774 208.654,209.404 207.996 C 210.761 206.579,210.240 206.415,208.821 207.812 M194.000 209.291 C 194.000 209.815,196.587 210.818,197.877 210.794 C 198.564 210.781,196.957 210.012,196.231 210.006 C 195.809 210.003,195.134 209.702,194.731 209.338 C 194.094 208.761,194.000 208.755,194.000 209.291 M206.800 209.587 C 206.800 209.801,206.530 209.871,206.200 209.745 C 205.870 209.618,205.600 209.714,205.600 209.957 C 205.600 210.454,206.030 210.517,206.967 210.157 C 207.665 209.889,207.833 209.200,207.200 209.200 C 206.980 209.200,206.800 209.374,206.800 209.587 M238.156 215.371 C 237.712 216.528,238.181 217.797,239.100 217.928 C 239.987 218.054,240.000 218.140,240.000 224.000 C 240.000 229.860,239.987 229.946,239.100 230.072 C 238.410 230.170,238.171 230.504,238.075 231.500 L 237.949 232.800 241.387 232.800 C 244.201 232.800,244.871 232.681,245.076 232.146 C 245.416 231.261,244.710 230.228,243.659 230.072 C 242.815 229.947,242.800 229.812,242.800 222.372 L 242.800 214.800 240.587 214.800 C 239.040 214.800,238.309 214.972,238.156 215.371 M140.282 215.451 C 139.592 216.141,139.989 218.400,140.800 218.400 C 141.563 218.400,141.600 218.667,141.600 224.153 C 141.600 229.570,141.553 229.919,140.800 230.116 C 140.217 230.268,140.000 230.662,140.000 231.563 L 140.000 232.800 143.400 232.800 L 146.800 232.800 146.800 231.400 C 146.800 230.173,146.676 230.000,145.800 230.000 L 144.800 230.000 144.800 225.524 C 144.800 220.634,145.358 220.290,146.456 224.500 C 146.728 225.545,147.083 226.400,147.244 226.400 C 147.405 226.400,147.665 226.985,147.822 227.700 C 147.978 228.415,148.443 229.627,148.853 230.394 C 149.264 231.161,149.600 232.026,149.600 232.317 C 149.600 233.345,152.978 232.754,153.128 231.700 C 153.198 231.205,153.405 230.800,153.588 230.800 C 153.771 230.800,154.136 229.900,154.400 228.800 C 154.664 227.700,155.009 226.800,155.168 226.800 C 155.326 226.800,155.700 225.900,156.000 224.800 C 156.300 223.700,156.679 222.800,156.843 222.800 C 157.007 222.800,157.224 222.485,157.324 222.100 C 157.425 221.715,157.528 223.335,157.554 225.700 C 157.597 229.749,157.553 230.000,156.800 230.000 C 156.152 230.000,156.000 230.267,156.000 231.400 L 156.000 232.800 159.200 232.800 L 162.400 232.800 162.400 231.400 C 162.400 230.267,162.248 230.000,161.600 230.000 C 160.837 230.000,160.800 229.733,160.800 224.200 C 160.800 218.667,160.837 218.400,161.600 218.400 C 162.267 218.400,162.400 218.133,162.400 216.800 L 162.400 215.200 159.245 215.200 L 156.089 215.200 155.826 216.600 C 155.682 217.370,155.412 218.000,155.226 218.000 C 155.041 218.000,154.766 218.654,154.616 219.454 C 154.466 220.254,153.996 221.556,153.572 222.348 C 153.147 223.140,152.794 224.061,152.786 224.394 C 152.743 226.352,150.800 228.640,150.800 226.733 C 150.800 226.330,150.649 226.000,150.464 226.000 C 150.279 226.000,149.890 225.010,149.600 223.800 C 149.310 222.590,148.950 221.600,148.800 221.600 C 148.650 221.600,148.306 220.610,148.035 219.400 C 147.764 218.190,147.388 217.200,147.199 217.200 C 147.010 217.200,146.798 216.795,146.728 216.300 C 146.598 215.387,141.073 214.660,140.282 215.451 M226.294 215.763 C 225.944 216.113,225.480 216.400,225.264 216.400 C 224.723 216.400,222.800 218.739,222.800 219.397 C 222.800 219.692,222.575 220.008,222.300 220.100 C 221.945 220.218,221.800 221.409,221.800 224.200 C 221.800 226.991,221.945 228.182,222.300 228.300 C 222.575 228.392,222.800 228.696,222.800 228.977 C 222.800 230.932,226.793 233.200,230.234 233.200 C 234.702 233.200,239.295 229.175,236.900 227.357 C 236.009 226.681,234.402 226.644,234.393 227.300 C 234.350 230.384,228.040 230.778,226.115 227.817 C 222.477 222.224,228.420 215.332,233.200 219.600 C 235.275 221.452,237.600 221.347,237.600 219.400 C 237.600 218.409,237.421 218.000,236.987 218.000 C 236.649 218.000,235.801 217.415,235.103 216.700 C 233.562 215.123,227.572 214.485,226.294 215.763 M165.577 222.022 L 163.922 223.645 164.064 227.122 C 164.287 232.556,167.487 234.565,173.000 232.731 C 176.197 231.668,175.024 229.139,171.688 229.903 C 169.359 230.436,167.200 229.723,167.200 228.420 C 167.200 227.647,167.433 227.600,171.255 227.600 L 175.310 227.600 175.046 225.351 C 174.456 220.330,169.191 218.480,165.577 222.022 M178.377 222.022 L 176.722 223.645 176.864 227.122 C 177.087 232.556,180.287 234.565,185.800 232.731 C 188.997 231.668,187.824 229.139,184.488 229.903 C 182.159 230.436,180.000 229.723,180.000 228.420 C 180.000 227.647,180.233 227.600,184.055 227.600 L 188.110 227.600 187.846 225.351 C 187.256 220.330,181.991 218.480,178.377 222.022 M189.600 222.000 C 189.600 223.333,189.733 223.600,190.400 223.600 C 191.133 223.600,191.200 223.867,191.200 226.800 C 191.200 229.733,191.133 230.000,190.400 230.000 C 189.752 230.000,189.600 230.267,189.600 231.400 L 189.600 232.800 192.800 232.800 L 196.000 232.800 196.000 231.400 C 196.000 230.267,195.848 230.000,195.200 230.000 C 194.363 230.000,193.970 225.295,194.710 224.132 C 195.288 223.223,196.978 223.114,197.914 223.925 C 199.186 225.029,199.257 230.000,198.000 230.000 C 197.352 230.000,197.200 230.267,197.200 231.400 L 197.200 232.800 200.400 232.800 L 203.600 232.800 203.600 231.400 C 203.600 230.267,203.448 230.000,202.800 230.000 C 202.059 230.000,202.000 229.733,202.000 226.400 C 202.000 224.420,201.841 222.800,201.647 222.800 C 201.452 222.800,201.199 222.440,201.084 222.000 C 200.969 221.560,200.588 221.200,200.237 221.200 C 199.887 221.200,199.600 221.020,199.600 220.800 C 199.600 220.222,195.858 220.307,195.230 220.900 C 194.806 221.300,194.663 221.300,194.517 220.900 C 194.398 220.577,193.496 220.400,191.967 220.400 L 189.600 220.400 189.600 222.000 M206.300 221.064 C 205.222 221.632,204.921 222.542,205.506 223.462 C 205.724 223.804,206.353 223.815,207.918 223.506 C 209.851 223.124,210.104 223.160,210.818 223.927 C 211.933 225.124,211.849 225.200,209.400 225.200 C 208.190 225.200,207.200 225.360,207.200 225.557 C 207.200 225.753,206.750 226.026,206.200 226.164 C 205.650 226.302,205.200 226.682,205.200 227.008 C 205.200 227.333,205.020 227.600,204.800 227.600 C 204.169 227.600,204.334 230.728,205.021 231.776 C 205.870 233.072,207.014 233.277,211.633 232.959 L 215.600 232.686 215.600 231.343 C 215.600 230.604,215.420 230.000,215.200 230.000 C 214.969 230.000,214.800 228.749,214.800 227.046 C 214.800 221.285,210.982 218.598,206.300 221.064 M247.300 221.124 C 244.695 222.367,246.062 224.095,249.149 223.462 C 251.077 223.067,251.337 223.099,251.841 223.789 C 252.729 225.002,252.527 225.200,250.400 225.200 C 249.300 225.200,248.400 225.380,248.400 225.600 C 248.400 225.820,248.130 226.000,247.800 226.000 C 246.552 226.000,245.600 227.519,245.606 229.500 C 245.617 232.903,246.519 233.363,252.433 232.980 L 256.800 232.697 256.800 231.349 C 256.800 230.458,256.609 230.000,256.239 230.000 C 255.806 230.000,255.645 229.128,255.539 226.194 C 255.340 220.751,252.171 218.800,247.300 221.124 M259.300 221.384 C 257.968 222.716,258.076 226.800,259.443 226.800 C 259.749 226.800,260.000 226.959,260.000 227.153 C 260.000 227.346,260.785 227.703,261.744 227.944 C 263.882 228.483,264.726 229.326,264.000 230.200 C 263.306 231.037,262.285 230.948,261.693 230.000 C 260.799 228.568,258.000 228.871,258.000 230.400 C 258.000 231.107,258.210 231.600,258.511 231.600 C 258.792 231.600,259.347 231.979,259.744 232.443 C 260.777 233.649,265.564 233.418,266.789 232.104 C 267.650 231.180,267.977 227.600,267.200 227.600 C 266.980 227.600,266.800 227.365,266.800 227.077 C 266.800 226.595,265.481 225.873,262.700 224.832 C 262.095 224.605,261.600 224.145,261.600 223.810 C 261.600 222.912,263.475 223.045,264.293 224.000 C 265.671 225.610,268.000 225.107,268.000 223.200 C 268.000 221.923,267.854 221.600,267.276 221.600 C 266.879 221.600,266.204 221.336,265.776 221.013 C 264.494 220.043,260.407 220.278,259.300 221.384 M271.200 220.800 C 271.200 221.020,270.926 221.200,270.590 221.200 C 269.755 221.200,269.089 223.111,269.351 224.755 C 269.623 226.458,270.617 227.395,272.850 228.055 C 275.260 228.766,275.936 229.460,274.949 230.208 C 273.911 230.993,273.292 230.936,272.707 230.000 C 271.795 228.540,268.400 228.855,268.400 230.400 C 268.400 231.333,268.578 231.600,269.200 231.600 C 269.640 231.600,270.000 231.751,270.000 231.936 C 270.000 233.556,275.936 233.650,277.604 232.057 C 278.798 230.915,279.370 228.000,278.400 228.000 C 278.180 228.000,278.000 227.728,278.000 227.395 C 278.000 226.875,275.635 225.560,273.100 224.671 C 272.242 224.370,272.188 223.656,273.001 223.344 C 273.926 222.989,275.600 223.545,275.600 224.208 C 275.600 224.632,276.054 224.800,277.200 224.800 L 278.800 224.800 278.800 223.200 C 278.800 221.886,278.662 221.600,278.029 221.600 C 277.604 221.600,276.987 221.330,276.657 221.000 C 275.969 220.312,271.200 220.137,271.200 220.800 M282.400 221.114 C 281.104 221.985,280.829 222.368,280.539 223.700 C 280.408 224.305,280.143 224.800,279.950 224.800 C 279.462 224.800,279.509 228.696,280.000 229.000 C 280.220 229.136,280.400 229.563,280.400 229.949 C 280.400 232.296,285.407 233.986,288.922 232.826 C 291.731 231.899,291.324 229.354,288.444 229.832 C 285.611 230.303,284.775 230.164,283.747 229.056 C 282.396 227.599,282.394 227.600,286.800 227.600 L 290.800 227.600 290.800 225.860 C 290.800 223.563,290.116 221.691,289.167 221.389 C 288.745 221.256,288.400 220.978,288.400 220.773 C 288.400 220.105,283.486 220.384,282.400 221.114 M294.458 221.142 C 291.902 223.108,293.214 227.125,296.725 228.079 C 298.926 228.677,299.806 229.555,298.896 230.246 C 297.897 231.004,297.067 230.919,296.493 230.000 C 295.586 228.549,292.400 228.860,292.400 230.400 C 292.400 231.214,292.598 231.600,293.017 231.600 C 293.356 231.600,294.020 231.960,294.492 232.400 C 295.365 233.214,298.275 233.491,300.286 232.952 C 301.171 232.714,302.800 230.428,302.800 229.423 C 302.800 227.661,301.056 226.148,297.500 224.828 C 296.292 224.380,296.064 223.704,297.001 223.344 C 297.926 222.989,299.600 223.545,299.600 224.208 C 299.600 224.632,300.054 224.800,301.200 224.800 L 302.800 224.800 302.800 223.200 C 302.800 221.886,302.662 221.600,302.029 221.600 C 301.604 221.600,300.987 221.330,300.657 221.000 C 299.771 220.114,295.673 220.208,294.458 221.142 M170.700 223.452 C 172.539 223.945,171.715 224.800,169.400 224.800 C 166.990 224.800,166.908 224.749,167.829 223.829 C 168.497 223.160,169.244 223.062,170.700 223.452 M183.500 223.452 C 185.339 223.945,184.515 224.800,182.200 224.800 C 179.790 224.800,179.708 224.749,180.629 223.829 C 181.297 223.160,182.044 223.062,183.500 223.452 M287.200 224.000 C 287.602 224.751,287.504 224.800,285.614 224.800 C 283.569 224.800,283.217 224.543,284.080 223.680 C 284.853 222.907,286.717 223.098,287.200 224.000 M211.600 228.773 C 211.600 229.198,211.240 229.660,210.800 229.800 C 210.360 229.940,210.000 230.222,210.000 230.427 C 210.000 231.060,208.809 230.840,207.962 230.050 C 207.219 229.358,207.207 229.250,207.807 228.650 C 208.785 227.672,211.600 227.763,211.600 228.773 M252.400 228.754 C 252.400 229.504,250.854 230.800,249.958 230.800 C 249.133 230.800,248.435 229.481,248.850 228.706 C 249.409 227.662,252.400 227.703,252.400 228.754 " stroke="none" fill="#fcc739" fill-rule="evenodd"></path><path id="path1" d="M59.617 161.500 C 58.620 162.237,56.963 163.859,56.067 164.974 C 55.773 165.339,55.368 166.213,55.167 166.916 C 54.682 168.608,54.683 234.596,55.168 236.287 C 55.555 237.638,58.670 241.196,59.467 241.198 C 59.723 241.199,60.008 241.425,60.100 241.700 C 60.231 242.094,67.871 242.223,96.133 242.306 L 132.000 242.413 132.000 206.406 L 132.000 170.400 128.800 170.400 L 125.600 170.400 125.600 203.400 L 125.600 236.400 94.455 236.400 L 63.309 236.400 62.255 235.345 C 61.675 234.765,61.200 234.045,61.200 233.745 C 61.200 233.445,61.020 233.200,60.800 233.200 C 60.580 233.200,60.400 232.750,60.400 232.200 C 60.400 231.650,60.580 231.200,60.800 231.200 C 61.020 231.200,61.206 230.885,61.213 230.500 C 61.265 227.622,61.505 227.600,93.460 227.600 L 122.000 227.600 122.000 194.200 L 122.000 160.800 91.281 160.800 C 62.653 160.800,60.498 160.848,59.617 161.500 M70.000 183.600 C 70.000 185.467,69.867 186.000,69.400 186.000 C 68.548 186.000,68.651 186.580,69.836 188.457 C 70.992 190.288,71.137 190.240,72.771 187.500 C 73.665 186.000,73.665 186.000,72.833 186.000 C 72.081 186.000,72.000 185.765,72.000 183.588 L 72.000 181.175 76.900 181.288 L 81.800 181.400 81.800 183.600 C 81.800 185.531,81.697 185.815,80.958 185.920 C 80.410 185.998,78.974 187.628,76.838 190.595 L 73.559 195.150 73.679 197.475 C 73.799 199.777,73.813 199.801,75.100 199.925 C 76.392 200.050,76.400 200.064,76.400 202.225 L 76.400 204.400 71.000 204.400 L 65.600 204.400 65.600 202.200 C 65.600 200.022,65.612 200.000,66.800 200.000 L 68.000 200.000 68.000 197.289 C 68.000 194.698,67.916 194.460,66.100 191.897 C 65.055 190.423,63.693 188.493,63.074 187.608 C 62.284 186.479,61.658 186.000,60.974 186.000 C 60.050 186.000,60.000 185.876,60.000 183.600 L 60.000 181.200 65.000 181.200 L 70.000 181.200 70.000 183.600 M94.018 182.300 C 94.237 182.905,94.589 183.760,94.801 184.200 C 95.012 184.640,96.187 187.520,97.412 190.600 C 100.103 197.364,100.136 197.402,101.003 194.791 C 101.383 193.646,101.942 192.235,102.245 191.655 C 102.547 191.075,102.796 190.398,102.798 190.151 C 102.799 189.904,103.132 188.914,103.537 187.951 C 103.942 186.988,104.706 185.070,105.234 183.688 L 106.195 181.177 110.998 181.288 L 115.800 181.400 115.800 183.600 C 115.800 185.577,115.709 185.813,114.900 185.928 C 114.006 186.055,114.000 186.102,114.000 193.028 L 114.000 200.000 115.000 200.000 C 115.945 200.000,116.000 200.120,116.000 202.200 L 116.000 204.400 111.600 204.400 L 107.200 204.400 107.200 202.247 C 107.200 200.430,107.325 200.061,108.000 199.884 C 108.753 199.687,108.799 199.349,108.777 194.137 L 108.754 188.600 107.791 190.600 C 107.262 191.700,106.822 192.745,106.814 192.922 C 106.806 193.099,106.463 193.999,106.052 194.922 C 105.640 195.845,104.809 197.860,104.204 199.400 C 102.218 204.460,102.271 204.400,99.839 204.400 L 97.699 204.400 96.828 202.300 C 96.349 201.145,95.797 199.840,95.602 199.400 C 95.407 198.960,94.683 197.250,93.993 195.600 C 93.303 193.950,92.401 191.880,91.989 191.000 L 91.240 189.400 91.220 194.700 C 91.201 199.740,91.239 200.000,92.000 200.000 C 92.704 200.000,92.800 200.267,92.800 202.213 L 92.800 204.426 88.300 204.313 L 83.800 204.200 83.800 202.218 C 83.800 200.434,83.900 200.213,84.800 200.000 L 85.800 199.764 85.800 193.000 L 85.800 186.236 84.800 186.002 C 83.729 185.752,83.289 184.093,83.778 182.145 C 84.011 181.217,84.104 181.200,88.818 181.200 L 93.620 181.200 94.018 182.300 " stroke="none" fill="#3ec4ec" fill-rule="evenodd"></path><path id="path2" d="M60.400 183.587 C 60.400 185.405,60.487 185.601,61.300 185.610 C 62.944 185.627,68.439 193.997,68.701 196.881 C 68.937 199.481,68.474 200.400,66.929 200.400 C 66.018 200.400,65.964 200.521,66.078 202.300 L 66.200 204.200 71.000 204.200 L 75.800 204.200 75.922 202.300 C 76.029 200.634,75.947 200.400,75.255 200.400 C 73.460 200.400,73.200 200.024,73.200 197.423 L 73.200 194.932 76.628 190.266 C 78.949 187.106,80.305 185.600,80.828 185.600 C 81.488 185.600,81.600 185.309,81.600 183.587 L 81.600 181.575 76.900 181.687 L 72.200 181.800 72.078 183.700 C 71.962 185.503,72.009 185.600,72.978 185.600 C 74.262 185.600,74.258 185.652,72.771 188.251 C 71.220 190.962,70.882 190.940,69.281 188.029 L 67.978 185.659 68.889 185.529 C 69.683 185.417,69.800 185.169,69.800 183.600 L 69.800 181.800 65.100 181.687 L 60.400 181.575 60.400 183.587 M84.400 183.559 C 84.400 185.313,84.505 185.559,85.300 185.672 C 86.190 185.799,86.201 185.880,86.309 192.890 L 86.418 199.980 85.409 200.233 C 84.501 200.461,84.400 200.684,84.400 202.458 L 84.400 204.429 88.300 204.314 L 92.200 204.200 92.321 202.333 C 92.423 200.745,92.319 200.428,91.621 200.207 C 90.843 199.960,90.800 199.643,90.800 194.149 C 90.800 187.699,90.945 187.513,92.719 191.687 C 93.400 193.289,94.843 196.670,95.925 199.200 L 97.893 203.800 99.646 203.904 C 102.056 204.047,101.863 204.330,105.370 195.500 C 107.095 191.155,108.573 187.600,108.653 187.600 C 109.364 187.600,108.721 200.096,108.000 200.284 C 107.357 200.452,107.200 200.830,107.200 202.204 C 107.200 204.312,107.395 204.400,112.033 204.400 L 115.600 204.400 115.600 202.443 C 115.600 200.690,115.496 200.461,114.600 200.236 L 113.600 199.985 113.600 192.792 L 113.600 185.600 114.600 185.600 C 115.533 185.600,115.600 185.467,115.600 183.600 L 115.600 181.600 110.987 181.600 C 106.955 181.600,106.344 181.688,106.129 182.300 C 105.738 183.413,102.492 191.937,101.331 194.900 C 100.000 198.295,100.097 198.333,98.251 193.693 C 97.399 191.552,95.952 188.000,95.037 185.800 L 93.372 181.800 88.886 181.687 L 84.400 181.574 84.400 183.559 " stroke="none" fill="#f9fbec" fill-rule="evenodd"></path><path id="path3" d="" stroke="none" fill="#100d04c" fill-rule="evenodd"></path><path id="path4" d="M60.000 183.600 C 60.000 185.876,60.050 186.000,60.974 186.000 C 61.658 186.000,62.284 186.479,63.074 187.608 C 63.693 188.493,65.055 190.423,66.100 191.897 C 67.916 194.460,68.000 194.698,68.000 197.289 L 68.000 200.000 66.800 200.000 C 65.612 200.000,65.600 200.022,65.600 202.200 C 65.600 203.410,65.735 204.400,65.900 204.400 C 66.065 204.400,66.138 203.500,66.061 202.400 C 65.930 200.502,65.973 200.400,66.912 200.400 C 68.474 200.400,68.937 199.489,68.701 196.881 C 68.439 193.997,62.944 185.627,61.300 185.610 C 60.487 185.601,60.400 185.405,60.400 183.576 L 60.400 181.553 65.201 181.676 C 67.841 181.744,70.001 181.665,70.001 181.500 C 70.000 181.335,67.750 181.200,65.000 181.200 L 60.000 181.200 60.000 183.600 M71.999 181.488 C 71.999 181.659,74.159 181.744,76.799 181.676 L 81.600 181.553 81.600 183.576 C 81.600 185.309,81.489 185.600,80.828 185.600 C 80.305 185.600,78.949 187.106,76.628 190.266 L 73.200 194.932 73.200 197.423 C 73.200 200.029,73.458 200.400,75.271 200.400 C 75.990 200.400,76.062 200.616,75.939 202.400 C 75.862 203.500,75.935 204.400,76.100 204.400 C 76.265 204.400,76.400 203.421,76.400 202.225 C 76.400 200.064,76.392 200.050,75.100 199.925 C 73.813 199.801,73.799 199.777,73.679 197.475 L 73.559 195.150 76.838 190.595 C 78.974 187.628,80.410 185.998,80.958 185.920 C 81.697 185.815,81.800 185.531,81.800 183.600 L 81.800 181.400 76.900 181.288 C 74.205 181.226,72.000 181.316,71.999 181.488 M83.778 182.145 C 83.289 184.093,83.729 185.752,84.800 186.002 L 85.800 186.236 85.800 193.000 L 85.800 199.764 84.800 199.998 C 83.699 200.255,83.100 203.260,83.974 204.134 C 84.275 204.435,84.400 203.963,84.400 202.523 C 84.400 200.680,84.496 200.463,85.409 200.233 L 86.418 199.980 86.309 192.890 C 86.201 185.880,86.190 185.799,85.300 185.672 C 84.506 185.559,84.400 185.313,84.400 183.572 L 84.400 181.600 88.787 181.600 C 93.162 181.600,93.176 181.603,93.771 182.700 C 94.458 183.966,94.580 183.725,94.010 182.226 C 93.420 180.675,84.165 180.601,83.778 182.145 M105.999 181.488 C 105.999 181.659,108.159 181.744,110.799 181.676 L 115.600 181.553 115.600 183.576 C 115.600 185.468,115.535 185.600,114.600 185.600 L 113.600 185.600 113.690 192.900 L 113.780 200.200 113.899 193.127 C 114.016 186.159,114.032 186.051,114.909 185.927 C 115.707 185.813,115.800 185.570,115.800 183.600 L 115.800 181.400 110.900 181.288 C 108.205 181.226,106.000 181.316,105.999 181.488 M104.825 184.625 C 104.356 185.879,104.051 186.984,104.147 187.080 C 104.243 187.176,104.706 186.229,105.175 184.975 C 105.644 183.721,105.949 182.616,105.853 182.520 C 105.757 182.424,105.294 183.371,104.825 184.625 M94.400 184.142 C 94.400 184.651,96.916 190.418,97.070 190.263 C 97.244 190.089,95.062 184.529,94.663 184.129 C 94.518 183.985,94.400 183.991,94.400 184.142 M68.912 185.540 C 68.240 185.737,68.117 185.946,68.406 186.400 C 68.660 186.799,68.790 186.832,68.794 186.500 C 68.797 186.225,69.070 186.000,69.400 186.000 C 69.730 186.000,70.000 185.820,70.000 185.600 C 70.000 185.380,69.955 185.218,69.900 185.240 C 69.845 185.262,69.400 185.397,68.912 185.540 M72.685 185.940 L 73.569 186.200 72.364 188.132 C 71.360 189.741,71.061 189.982,70.570 189.575 C 70.086 189.174,70.026 189.204,70.234 189.743 C 70.687 190.926,71.521 190.436,72.771 188.251 C 74.268 185.634,74.271 185.590,72.900 185.640 C 71.904 185.676,71.883 185.704,72.685 185.940 M103.200 188.800 C 102.921 189.474,102.786 190.119,102.900 190.233 C 103.014 190.347,103.309 189.862,103.556 189.156 C 103.802 188.449,103.937 187.804,103.856 187.722 C 103.774 187.641,103.479 188.126,103.200 188.800 M107.858 189.173 C 107.477 190.123,107.254 190.987,107.360 191.093 C 107.625 191.359,108.852 188.355,108.684 187.851 C 108.609 187.628,108.238 188.223,107.858 189.173 M90.882 194.300 L 90.964 200.200 91.182 194.800 C 91.381 189.877,91.444 189.521,91.902 190.765 C 92.178 191.516,92.505 192.028,92.630 191.904 C 92.863 191.670,91.334 188.400,90.992 188.400 C 90.886 188.400,90.837 191.055,90.882 194.300 M97.246 191.000 C 97.253 191.220,97.606 192.120,98.029 193.000 C 98.452 193.880,98.686 194.150,98.549 193.600 C 98.267 192.467,97.225 190.388,97.246 191.000 M106.227 193.250 C 105.864 194.157,105.659 194.992,105.772 195.105 C 105.969 195.303,106.374 194.425,106.974 192.500 C 107.447 190.979,106.926 191.503,106.227 193.250 M101.665 192.845 C 100.877 194.949,100.859 195.697,101.636 194.064 C 102.090 193.109,102.363 192.229,102.242 192.109 C 102.121 191.988,101.861 192.319,101.665 192.845 M93.035 193.200 C 93.181 193.750,93.554 194.650,93.864 195.200 L 94.429 196.200 94.165 195.200 C 94.019 194.650,93.646 193.750,93.336 193.200 L 92.771 192.200 93.035 193.200 M99.431 196.400 C 99.578 196.950,99.777 197.485,99.871 197.588 C 100.083 197.820,100.788 196.751,100.788 196.200 C 100.788 195.980,100.632 196.047,100.441 196.348 C 100.160 196.791,100.004 196.753,99.628 196.148 C 99.217 195.489,99.194 195.519,99.431 196.400 M104.633 197.233 C 104.267 198.150,104.042 198.975,104.133 199.067 C 104.225 199.158,104.600 198.483,104.967 197.567 C 105.333 196.650,105.558 195.825,105.467 195.733 C 105.375 195.642,105.000 196.317,104.633 197.233 M95.028 198.000 C 95.172 198.550,95.450 199.171,95.645 199.380 C 96.216 199.991,96.041 199.114,95.369 198.000 L 94.767 197.000 95.028 198.000 M103.033 201.233 C 102.667 202.150,102.442 202.975,102.533 203.067 C 102.625 203.158,103.000 202.483,103.367 201.567 C 103.733 200.650,103.958 199.825,103.867 199.733 C 103.775 199.642,103.400 200.317,103.033 201.233 M91.944 200.357 C 92.314 200.591,92.441 201.294,92.341 202.551 C 92.260 203.568,92.331 204.400,92.497 204.400 C 92.664 204.400,92.800 203.410,92.800 202.200 C 92.800 200.369,92.683 200.001,92.100 200.006 C 91.553 200.011,91.519 200.088,91.944 200.357 M96.033 200.126 C 96.015 200.305,96.382 201.340,96.849 202.426 L 97.699 204.400 99.826 204.400 C 100.996 204.400,102.045 204.251,102.158 204.069 C 102.270 203.886,101.387 203.818,100.195 203.917 L 98.027 204.097 97.046 201.948 C 96.507 200.767,96.051 199.947,96.033 200.126 M114.880 200.272 C 115.383 200.404,115.598 200.990,115.706 202.525 L 115.852 204.600 115.926 202.300 C 115.995 200.147,115.942 200.003,115.100 200.046 C 114.455 200.080,114.393 200.143,114.880 200.272 " stroke="none" fill="#6cd0f0" fill-rule="evenodd"></path></g></svg>